<svg width="21" height="22" viewBox="0 0 21 22" fill="none" xmlns="http://www.w3.org/2000/svg">
<path d="M18.7661 5.97141L13.5161 3.34641C13.3946 3.28558 13.2605 3.25391 13.1246 3.25391C12.9886 3.25391 12.8546 3.28558 12.733 3.34641L7.875 5.77628L3.01613 3.34641C2.88269 3.27973 2.73443 3.24827 2.58541 3.25502C2.4364 3.26177 2.29158 3.3065 2.16472 3.38497C2.03786 3.46343 1.93317 3.57303 1.86058 3.70334C1.788 3.83366 1.74993 3.98037 1.75 4.12953V15.5045C1.75 15.8362 1.93725 16.1389 2.23388 16.2877L7.48388 18.9127C7.60544 18.9735 7.7395 19.0052 7.87544 19.0052C8.01137 19.0052 8.14544 18.9735 8.267 18.9127L13.125 16.4828L17.9839 18.9118C18.1169 18.9791 18.2651 19.011 18.4141 19.0044C18.563 18.9978 18.7078 18.953 18.8344 18.8742C19.0925 18.714 19.25 18.4332 19.25 18.1295V6.75453C19.25 6.42291 19.0627 6.12016 18.7661 5.97141ZM8.75 7.29528L12.25 5.54528V14.9638L8.75 16.7138V7.29528ZM3.5 5.54528L7 7.29528V16.7138L3.5 14.9638V5.54528ZM17.5 16.7138L14 14.9638V5.54528L17.5 7.29528V16.7138Z" fill="#283655"/>
</svg>
