<svg width="21" height="22" viewBox="0 0 21 22" fill="none" xmlns="http://www.w3.org/2000/svg">
<path d="M10.5 12.8794C12.4303 12.8794 14 11.3096 14 9.37939C14 7.44914 12.4303 5.87939 10.5 5.87939C8.56975 5.87939 7 7.44914 7 9.37939C7 11.3096 8.56975 12.8794 10.5 12.8794ZM10.5 7.62939C11.4651 7.62939 12.25 8.41427 12.25 9.37939C12.25 10.3445 11.4651 11.1294 10.5 11.1294C9.53487 11.1294 8.75 10.3445 8.75 9.37939C8.75 8.41427 9.53487 7.62939 10.5 7.62939Z" fill="#283655"/>
<path d="M9.99258 19.7166C10.1407 19.8224 10.3181 19.8793 10.5001 19.8793C10.6821 19.8793 10.8595 19.8224 11.0076 19.7166C11.2736 19.5285 17.5255 15.0144 17.5001 9.3794C17.5001 5.51977 14.3597 2.37939 10.5001 2.37939C6.64045 2.37939 3.50008 5.51977 3.50008 9.37502C3.4747 15.0144 9.72658 19.5285 9.99258 19.7166ZM10.5001 4.12939C13.3955 4.12939 15.7501 6.48402 15.7501 9.38377C15.7685 13.267 11.9106 16.7539 10.5001 17.8975C9.09045 16.753 5.2317 13.2653 5.25008 9.3794C5.25008 6.48402 7.6047 4.12939 10.5001 4.12939Z" fill="#283655"/>
</svg>
