<svg width="21" height="21" viewBox="0 0 21 21" fill="none" xmlns="http://www.w3.org/2000/svg">
<path d="M18.0469 3.77295H14.6016V2.46045C14.6016 2.37021 14.5277 2.29639 14.4375 2.29639H13.2891C13.1988 2.29639 13.125 2.37021 13.125 2.46045V3.77295H7.875V2.46045C7.875 2.37021 7.80117 2.29639 7.71094 2.29639H6.5625C6.47227 2.29639 6.39844 2.37021 6.39844 2.46045V3.77295H2.95312C2.59014 3.77295 2.29688 4.06621 2.29688 4.4292V18.0464C2.29688 18.4094 2.59014 18.7026 2.95312 18.7026H18.0469C18.4099 18.7026 18.7031 18.4094 18.7031 18.0464V4.4292C18.7031 4.06621 18.4099 3.77295 18.0469 3.77295ZM17.2266 17.2261H3.77344V9.43311H17.2266V17.2261ZM3.77344 8.03857V5.24951H6.39844V6.23389C6.39844 6.32412 6.47227 6.39795 6.5625 6.39795H7.71094C7.80117 6.39795 7.875 6.32412 7.875 6.23389V5.24951H13.125V6.23389C13.125 6.32412 13.1988 6.39795 13.2891 6.39795H14.4375C14.5277 6.39795 14.6016 6.32412 14.6016 6.23389V5.24951H17.2266V8.03857H3.77344Z" fill="#283655"/>
</svg>
