<svg width="16" height="16" viewBox="0 0 16 16" fill="none" xmlns="http://www.w3.org/2000/svg">
<path d="M14.6666 11.2797V13.2797C14.6674 13.4654 14.6294 13.6492 14.555 13.8193C14.4806 13.9894 14.3715 14.1421 14.2347 14.2676C14.0979 14.3932 13.9364 14.4887 13.7605 14.5482C13.5846 14.6077 13.3982 14.6298 13.2133 14.6131C11.1619 14.3902 9.19131 13.6892 7.45998 12.5664C5.84919 11.5428 4.48353 10.1772 3.45998 8.56641C2.33329 6.82721 1.63214 4.84707 1.41331 2.78641C1.39665 2.60205 1.41856 2.41625 1.47764 2.24082C1.53673 2.0654 1.63169 1.9042 1.75649 1.76749C1.88128 1.63077 2.03318 1.52155 2.2025 1.44675C2.37183 1.37196 2.55487 1.33325 2.73998 1.33307H4.73998C5.06351 1.32989 5.37717 1.44446 5.62248 1.65543C5.8678 1.8664 6.02803 2.15937 6.07331 2.47974C6.15772 3.11978 6.31428 3.74822 6.53998 4.35307C6.62967 4.59169 6.64908 4.85102 6.59591 5.10033C6.54274 5.34964 6.41922 5.57848 6.23998 5.75974L5.39331 6.60641C6.34235 8.27544 7.72428 9.65737 9.39331 10.6064L10.24 9.75974C10.4212 9.5805 10.6501 9.45697 10.8994 9.4038C11.1487 9.35063 11.408 9.37004 11.6466 9.45974C12.2515 9.68544 12.8799 9.84199 13.52 9.92641C13.8438 9.97209 14.1396 10.1352 14.351 10.3847C14.5624 10.6343 14.6748 10.9528 14.6666 11.2797Z" stroke="#9FA2B4" stroke-linecap="round" stroke-linejoin="round"/>
</svg>
