<svg width="21" height="21" viewBox="0 0 21 21" fill="none" xmlns="http://www.w3.org/2000/svg">
<path d="M18.375 5.25H14.875V2.625C14.875 2.39294 14.7828 2.17038 14.6187 2.00628C14.4546 1.84219 14.2321 1.75 14 1.75H7C6.76794 1.75 6.54538 1.84219 6.38128 2.00628C6.21719 2.17038 6.125 2.39294 6.125 2.625V8.75H2.625C2.39294 8.75 2.17038 8.84219 2.00628 9.00628C1.84219 9.17038 1.75 9.39294 1.75 9.625V16.625C1.75 16.8571 1.84219 17.0796 2.00628 17.2437C2.17038 17.4078 2.39294 17.5 2.625 17.5H18.375C18.6071 17.5 18.8296 17.4078 18.9937 17.2437C19.1578 17.0796 19.25 16.8571 19.25 16.625V6.125C19.25 5.89294 19.1578 5.67038 18.9937 5.50628C18.8296 5.34219 18.6071 5.25 18.375 5.25ZM5.25 15.75H3.5V14H5.25V15.75ZM5.25 12.25H3.5V10.5H5.25V12.25ZM9.625 15.75H7.875V14H9.625V15.75ZM9.625 12.25H7.875V10.5H9.625V12.25ZM9.625 8.75H7.875V7H9.625V8.75ZM9.625 5.25H7.875V3.5H9.625V5.25ZM13.125 15.75H11.375V14H13.125V15.75ZM13.125 12.25H11.375V10.5H13.125V12.25ZM13.125 8.75H11.375V7H13.125V8.75ZM13.125 5.25H11.375V3.5H13.125V5.25ZM17.5 15.75H15.75V14H17.5V15.75ZM17.5 12.25H15.75V10.5H17.5V12.25ZM17.5 8.75H15.75V7H17.5V8.75Z" fill="#283655"/>
</svg>
