<svg width="16" height="16" viewBox="0 0 16 16" fill="none" xmlns="http://www.w3.org/2000/svg">
<path d="M14.4954 8.22044L8.49536 1.55377C8.2427 1.27244 7.75736 1.27244 7.5047 1.55377L1.5047 8.22044C1.41833 8.31617 1.36165 8.43493 1.34153 8.56228C1.32141 8.68963 1.33872 8.82008 1.39136 8.93777C1.49803 9.17844 1.7367 9.33311 2.00003 9.33311H3.33336V13.9998C3.33336 14.1766 3.4036 14.3462 3.52863 14.4712C3.65365 14.5962 3.82322 14.6664 4.00003 14.6664H6.00003C6.17684 14.6664 6.34641 14.5962 6.47143 14.4712C6.59646 14.3462 6.6667 14.1766 6.6667 13.9998V11.3331H9.33336V13.9998C9.33336 14.1766 9.4036 14.3462 9.52863 14.4712C9.65365 14.5962 9.82322 14.6664 10 14.6664H12C12.1768 14.6664 12.3464 14.5962 12.4714 14.4712C12.5965 14.3462 12.6667 14.1766 12.6667 13.9998V9.33311H14C14.1291 9.33366 14.2556 9.29663 14.3641 9.22654C14.4725 9.15645 14.5582 9.05632 14.6107 8.93837C14.6632 8.82042 14.6803 8.68973 14.6598 8.56226C14.6393 8.43478 14.5822 8.31601 14.4954 8.22044Z" fill="white"/>
</svg>
