<svg width="24" height="24" viewBox="0 0 24 24" fill="none" xmlns="http://www.w3.org/2000/svg">
<path d="M4.33722 1.14308L4.33722 1.14305C3.61139 1.41707 2.95405 1.84609 2.41103 2.40021L2.40226 2.40916L2.40216 2.40906C1.84716 2.95016 1.41842 3.60707 1.14651 4.33294L1.14421 4.33907L1.14418 4.33905C0.871714 5.04085 0.682711 5.84827 0.622099 7.07969C0.564969 8.3433 0.55296 8.73975 0.55296 11.9985C0.55296 15.2551 0.568671 15.6542 0.622137 16.9181L4.33722 1.14308ZM4.33722 1.14308L4.34201 1.14122C5.04366 0.868813 5.85088 0.679832 7.08186 0.619178L4.33722 1.14308ZM16.879 1.68035L16.8766 1.68025C15.6229 1.62677 15.223 1.61059 12.1742 1.61002L12.1247 1.5755H11.952C8.81659 1.5755 8.37838 1.59128 7.16686 1.63489C7.13753 1.63594 7.10774 1.63702 7.07745 1.63811L7.07745 1.63805L7.0698 1.63843C5.84114 1.69975 5.15503 1.90646 4.67882 2.09136C4.02774 2.33356 3.57157 2.65033 3.10605 3.11584L3.10571 3.11619C2.63826 3.58446 2.32132 4.03905 2.08335 4.69148C1.89195 5.17063 1.69051 5.873 1.62573 7.09283L1.62563 7.09283L1.62527 7.10355C1.62271 7.17979 1.62023 7.25289 1.61783 7.32364C1.57994 8.44107 1.56196 8.97137 1.56196 11.9813C1.56196 14.9983 1.58001 15.5243 1.61806 16.6331C1.62039 16.7011 1.6228 16.7712 1.62528 16.8442L1.62518 16.8442L1.62573 16.8547C1.69056 18.0754 1.89225 18.7797 2.08416 19.2581C2.32059 19.8934 2.63424 20.3598 3.10605 20.8317C3.58004 21.3057 4.03474 21.5994 4.67052 21.8529L4.67482 21.8546C5.15219 22.0403 5.85381 22.2474 7.07883 22.3135L7.08324 22.3137C8.36957 22.3727 8.75329 22.3885 11.9685 22.3885C15.1838 22.3885 15.5673 22.3727 16.851 22.3183L16.8534 22.3182C18.0791 22.2609 18.7833 22.0552 19.2587 21.8676C19.8531 21.6466 20.3918 21.2978 20.8368 20.8459L20.8373 20.8454C21.3088 20.3655 21.6012 19.9099 21.8543 19.2828L21.8543 19.2828L21.8568 19.2764C22.0422 18.7998 22.2495 18.1065 22.3157 16.8806L22.3159 16.8764C22.3749 15.5982 22.3907 15.2053 22.3907 11.9992C22.3907 8.79302 22.3749 8.40109 22.3205 7.12406L22.3204 7.12174C22.263 5.89871 22.0568 5.20443 21.8706 4.72677C21.6522 4.1328 21.3038 3.59514 20.8509 3.15308C20.4075 2.69993 19.8691 2.35065 19.2746 2.13036C18.7969 1.94412 18.1026 1.73772 16.879 1.68035ZM6.39171 12.0002V11.9998C6.39144 11.2631 6.53635 10.5335 6.81816 9.8528C7.09997 9.1721 7.51316 8.5536 8.03411 8.03265C8.55506 7.5117 9.17356 7.09851 9.85426 6.8167C10.535 6.53489 11.2645 6.38998 12.0013 6.39025H12.0017C12.7384 6.38998 13.468 6.53489 14.1487 6.8167C14.8294 7.09851 15.4479 7.5117 15.9688 8.03265C16.4898 8.5536 16.9029 9.1721 17.1848 9.8528C17.4666 10.5335 17.6115 11.2631 17.6112 11.9998V12.0002C17.6115 12.7369 17.4666 13.4665 17.1848 14.1472C16.9029 14.8279 16.4898 15.4464 15.9688 15.9674C15.4479 16.4883 14.8294 16.9015 14.1487 17.1833C13.468 17.4651 12.7384 17.61 12.0017 17.6098H12.0013C11.2645 17.61 10.535 17.4651 9.85426 17.1833C9.17356 16.9015 8.55506 16.4883 8.03411 15.9674C7.51316 15.4464 7.09997 14.8279 6.81816 14.1472C6.53635 13.4665 6.39144 12.7369 6.39171 12.0002ZM7.45171 12C7.45171 14.5148 9.4867 16.5497 12.0015 16.5497C14.5162 16.5497 16.5512 14.5148 16.5512 12C16.5512 9.48524 14.5162 7.45025 12.0015 7.45025C9.4867 7.45025 7.45171 9.48524 7.45171 12ZM19.2995 5.59379C19.2992 5.83023 19.2051 6.05689 19.0378 6.22399C18.8705 6.39112 18.6437 6.485 18.4072 6.485C18.2904 6.485 18.1748 6.462 18.0669 6.41731C17.959 6.37262 17.861 6.30712 17.7784 6.22454C17.6958 6.14197 17.6303 6.04394 17.5856 5.93605C17.541 5.82817 17.518 5.71253 17.518 5.59575C17.518 5.47897 17.541 5.36333 17.5856 5.25545C17.6303 5.14756 17.6958 5.04953 17.7784 4.96695C17.861 4.88438 17.959 4.81888 18.0669 4.77419C18.1748 4.7295 18.2904 4.7065 18.4072 4.7065C18.8983 4.7065 19.2992 5.10724 19.2995 5.59379Z" stroke="#DDE2FF" stroke-width="1.1"/>
</svg>
