<svg width="610" height="121" viewBox="0 0 610 121" fill="none" xmlns="http://www.w3.org/2000/svg">
<path d="M214.99 80.44C215.77 82.42 216.67 83.86 217.69 84.76C218.71 85.66 219.7 86.14 220.66 86.2V88C217.06 87.82 212.5 87.73 206.98 87.73C200.86 87.73 196.3 87.82 193.3 88V86.2C195.58 86.08 197.2 85.81 198.16 85.39C199.12 84.91 199.6 84.1 199.6 82.96C199.6 81.88 199.24 80.44 198.52 78.64L193.12 63.88H173.5L171.16 70.09C169.48 74.41 168.64 77.74 168.64 80.08C168.64 82.3 169.3 83.86 170.62 84.76C172 85.6 174.01 86.08 176.65 86.2V88C172.57 87.82 168.85 87.73 165.49 87.73C162.73 87.73 160.45 87.82 158.65 88V86.2C161.59 85.66 164.17 82.51 166.39 76.75L186.91 24.1C187.57 24.16 188.62 24.19 190.06 24.19C191.5 24.19 192.52 24.16 193.12 24.1L214.99 80.44ZM192.49 62.08L183.58 37.78L174.22 62.08H192.49ZM270.88 23.02C274.48 23.02 277.54 23.53 280.06 24.55C282.58 25.57 285.04 27.01 287.44 28.87C288.1 29.41 288.67 29.68 289.15 29.68C290.35 29.68 291.13 27.88 291.49 24.28H293.56C293.32 28.36 293.2 35.62 293.2 46.06H291.13C290.59 41.62 289.87 38.23 288.97 35.89C288.07 33.55 286.54 31.51 284.38 29.77C282.88 28.33 281.14 27.25 279.16 26.53C277.18 25.75 275.11 25.36 272.95 25.36C266.89 25.36 262.39 28.33 259.45 34.27C256.51 40.15 255.04 47.5 255.04 56.32C255.04 65.08 256.57 72.4 259.63 78.28C262.69 84.16 267.25 87.1 273.31 87.1C275.35 87.1 277.36 86.74 279.34 86.02C281.38 85.24 283.09 84.13 284.47 82.69C286.69 81.01 288.22 78.91 289.06 76.39C289.96 73.87 290.65 70.18 291.13 65.32H293.2C293.2 76.18 293.32 83.74 293.56 88H291.49C291.31 86.08 291.04 84.73 290.68 83.95C290.38 83.11 289.93 82.69 289.33 82.69C288.85 82.69 288.22 82.93 287.44 83.41C284.74 85.33 282.16 86.8 279.7 87.82C277.24 88.78 274.27 89.26 270.79 89.26C264.43 89.26 258.85 87.97 254.05 85.39C249.31 82.81 245.62 79.09 242.98 74.23C240.34 69.31 239.02 63.46 239.02 56.68C239.02 50.08 240.37 44.23 243.07 39.13C245.77 34.03 249.52 30.07 254.32 27.25C259.18 24.43 264.7 23.02 270.88 23.02ZM378.687 84.04C377.067 85.9 375.327 87.22 373.467 88C371.607 88.84 369.357 89.26 366.717 89.26C363.237 89.26 360.477 88.54 358.437 87.1C356.457 85.6 355.167 83.08 354.567 79.54L352.947 70.54C352.167 66.16 351.207 62.95 350.067 60.91C348.987 58.81 347.157 57.76 344.577 57.76H338.727V78.46C338.727 80.74 338.877 82.39 339.177 83.41C339.537 84.43 340.167 85.12 341.067 85.48C341.967 85.84 343.437 86.08 345.477 86.2V88C342.237 87.82 337.707 87.73 331.887 87.73C325.467 87.73 320.727 87.82 317.667 88V86.2C319.647 86.08 321.087 85.84 321.987 85.48C322.947 85.12 323.577 84.43 323.877 83.41C324.237 82.39 324.417 80.74 324.417 78.46V33.82C324.417 31.54 324.237 29.89 323.877 28.87C323.577 27.85 322.947 27.16 321.987 26.8C321.087 26.44 319.647 26.2 317.667 26.08V24.28C320.727 24.46 325.287 24.55 331.347 24.55L341.337 24.46C342.537 24.4 343.917 24.37 345.477 24.37C353.757 24.37 359.967 25.72 364.107 28.42C368.307 31.12 370.407 34.99 370.407 40.03C370.407 44.29 368.847 48.04 365.727 51.28C362.607 54.52 357.447 56.56 350.247 57.4C355.647 57.88 359.667 59.05 362.307 60.91C364.947 62.77 366.657 65.56 367.437 69.28L369.507 78.55C369.987 80.95 370.527 82.63 371.127 83.59C371.787 84.55 372.687 85.03 373.827 85.03C374.547 84.97 375.147 84.79 375.627 84.49C376.167 84.19 376.767 83.68 377.427 82.96L378.687 84.04ZM344.307 26.08C342.687 26.08 341.487 26.29 340.707 26.71C339.987 27.13 339.477 27.88 339.177 28.96C338.877 30.04 338.727 31.66 338.727 33.82V55.96H342.597C347.517 55.96 350.877 54.67 352.677 52.09C354.537 49.45 355.467 45.76 355.467 41.02C355.467 36.1 354.597 32.38 352.857 29.86C351.117 27.34 348.267 26.08 344.307 26.08ZM445.302 74.32C445.302 79.84 445.512 84.4 445.932 88C441.852 87.82 434.982 87.73 425.322 87.73C412.242 87.73 402.462 87.82 395.982 88V86.2C397.962 86.08 399.402 85.84 400.302 85.48C401.262 85.12 401.892 84.43 402.192 83.41C402.552 82.39 402.732 80.74 402.732 78.46V33.82C402.732 31.54 402.552 29.89 402.192 28.87C401.892 27.85 401.262 27.16 400.302 26.8C399.402 26.44 397.962 26.2 395.982 26.08V24.28C402.462 24.46 412.242 24.55 425.322 24.55C434.142 24.55 440.412 24.46 444.132 24.28C443.712 29.26 443.502 33.7 443.502 37.6C443.502 40.24 443.592 42.28 443.772 43.72H441.702C440.802 37.3 439.182 32.8 436.842 30.22C434.502 27.64 431.202 26.35 426.942 26.35H423.252C421.392 26.35 420.042 26.5 419.202 26.8C418.362 27.1 417.792 27.7 417.492 28.6C417.192 29.44 417.042 30.82 417.042 32.74V55.06H419.922C423.102 55.06 425.502 53.89 427.122 51.55C428.802 49.21 429.972 46.42 430.632 43.18H432.702C432.522 45.7 432.432 48.52 432.432 51.64V55.96C432.432 59.02 432.612 63.28 432.972 68.74H430.902C429.642 60.82 425.982 56.86 419.922 56.86H417.042V79.54C417.042 81.46 417.192 82.87 417.492 83.77C417.792 84.61 418.362 85.18 419.202 85.48C420.042 85.78 421.392 85.93 423.252 85.93H427.662C431.922 85.93 435.342 84.49 437.922 81.61C440.562 78.67 442.422 73.72 443.502 66.76H445.572C445.392 68.74 445.302 71.26 445.302 74.32Z" fill="#DDE2FF"/>
<path d="M0.546 118L5.012 108.13H6.048L10.514 118H9.324L8.176 115.41H2.842L1.68 118H0.546ZM3.276 114.416H7.742L5.516 109.418L3.276 114.416ZM27.4465 118V108.2H28.5525V116.978H34.0685V118H27.4465ZM51.1145 118V108.2H52.2205V116.978H57.7365V118H51.1145ZM98.4598 118.168C97.0504 118.168 95.8791 117.683 94.9458 116.712C94.0124 115.732 93.5458 114.528 93.5458 113.1C93.5458 111.691 94.0171 110.496 94.9598 109.516C95.9024 108.527 97.0831 108.032 98.5018 108.032C99.3231 108.032 100.023 108.167 100.602 108.438C101.18 108.699 101.745 109.091 102.296 109.614L101.568 110.398C100.625 109.502 99.5984 109.054 98.4878 109.054C97.4051 109.054 96.4998 109.441 95.7718 110.216C95.0531 110.991 94.6938 111.952 94.6938 113.1C94.6938 114.239 95.0578 115.2 95.7858 115.984C96.5138 116.759 97.4144 117.146 98.4878 117.146C99.1224 117.146 99.6824 117.029 100.168 116.796C100.653 116.563 101.148 116.208 101.652 115.732L102.38 116.502C101.829 117.053 101.25 117.468 100.644 117.748C100.037 118.028 99.3091 118.168 98.4598 118.168ZM127.19 116.684C126.248 117.673 125.048 118.168 123.592 118.168C122.136 118.168 120.942 117.673 120.008 116.684C119.075 115.695 118.608 114.5 118.608 113.1C118.608 111.709 119.08 110.519 120.022 109.53C120.965 108.531 122.164 108.032 123.62 108.032C125.076 108.032 126.271 108.527 127.204 109.516C128.138 110.505 128.604 111.7 128.604 113.1C128.604 114.491 128.133 115.685 127.19 116.684ZM120.848 115.97C121.586 116.754 122.51 117.146 123.62 117.146C124.731 117.146 125.646 116.759 126.364 115.984C127.092 115.2 127.456 114.239 127.456 113.1C127.456 111.971 127.088 111.014 126.35 110.23C125.622 109.446 124.703 109.054 123.592 109.054C122.482 109.054 121.562 109.446 120.834 110.23C120.116 111.005 119.756 111.961 119.756 113.1C119.756 114.229 120.12 115.186 120.848 115.97ZM145.937 118V108.2H147.057L150.627 113.548L154.197 108.2H155.317V118H154.211V110.062L150.641 115.312H150.585L147.015 110.076V118H145.937ZM173.091 118V108.2H174.211L177.781 113.548L181.351 108.2H182.471V118H181.365V110.062L177.795 115.312H177.739L174.169 110.076V118H173.091ZM200.245 118V108.2H207.329V109.208H201.351V112.554H206.699V113.562H201.351V116.992H207.399V118H200.245ZM224.624 118V108.2H228.838C230.042 108.2 230.971 108.527 231.624 109.18C232.128 109.684 232.38 110.337 232.38 111.14C232.38 111.924 232.138 112.559 231.652 113.044C231.167 113.529 230.523 113.847 229.72 113.996L232.73 118H231.372L228.53 114.192H225.73V118H224.624ZM225.73 113.198H228.74C229.487 113.198 230.094 113.016 230.56 112.652C231.027 112.288 231.26 111.789 231.26 111.154C231.26 110.547 231.036 110.076 230.588 109.74C230.15 109.395 229.538 109.222 228.754 109.222H225.73V113.198ZM254.221 118.168C252.812 118.168 251.641 117.683 250.707 116.712C249.774 115.732 249.307 114.528 249.307 113.1C249.307 111.691 249.779 110.496 250.721 109.516C251.664 108.527 252.845 108.032 254.263 108.032C255.085 108.032 255.785 108.167 256.363 108.438C256.942 108.699 257.507 109.091 258.057 109.614L257.329 110.398C256.387 109.502 255.36 109.054 254.249 109.054C253.167 109.054 252.261 109.441 251.533 110.216C250.815 110.991 250.455 111.952 250.455 113.1C250.455 114.239 250.819 115.2 251.547 115.984C252.275 116.759 253.176 117.146 254.249 117.146C254.884 117.146 255.444 117.029 255.929 116.796C256.415 116.563 256.909 116.208 257.413 115.732L258.141 116.502C257.591 117.053 257.012 117.468 256.405 117.748C255.799 118.028 255.071 118.168 254.221 118.168ZM275.175 118V108.2H276.281V118H275.175ZM293.312 118L297.778 108.13H298.814L303.28 118H302.09L300.942 115.41H295.608L294.446 118H293.312ZM296.042 114.416H300.508L298.282 109.418L296.042 114.416ZM320.212 118V108.2H321.318V116.978H326.834V118H320.212ZM363.077 118V108.2H367.291C368.495 108.2 369.424 108.527 370.077 109.18C370.581 109.684 370.833 110.337 370.833 111.14C370.833 111.924 370.591 112.559 370.105 113.044C369.62 113.529 368.976 113.847 368.173 113.996L371.183 118H369.825L366.983 114.192H364.183V118H363.077ZM364.183 113.198H367.193C367.94 113.198 368.547 113.016 369.013 112.652C369.48 112.288 369.713 111.789 369.713 111.154C369.713 110.547 369.489 110.076 369.041 109.74C368.603 109.395 367.991 109.222 367.207 109.222H364.183V113.198ZM388.195 118V108.2H395.279V109.208H389.301V112.554H394.649V113.562H389.301V116.992H395.349V118H388.195ZM411.734 118L416.2 108.13H417.236L421.702 118H420.512L419.364 115.41H414.03L412.868 118H411.734ZM414.464 114.416H418.93L416.704 109.418L414.464 114.416ZM438.634 118V108.2H439.74V116.978H445.256V118H438.634ZM481.499 118V108.2H488.583V109.208H482.605V112.554H487.953V113.562H482.605V116.992H488.653V118H481.499ZM509.238 118.14C507.736 118.14 506.401 117.617 505.234 116.572L505.92 115.76C506.443 116.236 506.966 116.586 507.488 116.81C508.02 117.034 508.618 117.146 509.28 117.146C509.934 117.146 510.461 116.992 510.862 116.684C511.264 116.367 511.464 115.956 511.464 115.452C511.464 114.976 511.287 114.598 510.932 114.318C510.578 114.038 509.906 113.795 508.916 113.59C507.75 113.338 506.91 112.997 506.396 112.568C505.883 112.139 505.626 111.527 505.626 110.734C505.626 109.959 505.93 109.32 506.536 108.816C507.143 108.312 507.913 108.06 508.846 108.06C510.144 108.06 511.292 108.461 512.29 109.264L511.646 110.118C510.778 109.409 509.836 109.054 508.818 109.054C508.193 109.054 507.689 109.208 507.306 109.516C506.924 109.815 506.732 110.197 506.732 110.664C506.732 111.149 506.914 111.532 507.278 111.812C507.652 112.092 508.356 112.344 509.392 112.568C510.503 112.811 511.31 113.151 511.814 113.59C512.328 114.019 512.584 114.612 512.584 115.368C512.584 116.199 512.272 116.871 511.646 117.384C511.021 117.888 510.218 118.14 509.238 118.14ZM532.218 118V109.222H528.928V108.2H536.628V109.222H533.338V118H532.218ZM551.609 118L556.075 108.13H557.111L561.577 118H560.387L559.239 115.41H553.905L552.743 118H551.609ZM554.339 114.416H558.805L556.579 109.418L554.339 114.416ZM579.841 118V109.222H576.551V108.2H584.251V109.222H580.961V118H579.841ZM601.329 118V108.2H608.413V109.208H602.435V112.554H607.783V113.562H602.435V116.992H608.483V118H601.329Z" fill="#DDE2FF"/>
</svg>
