<svg width="14" height="14" viewBox="0 0 14 14" fill="none" xmlns="http://www.w3.org/2000/svg">
<path d="M4.44319 5.082L6.31278 3.724C6.52265 3.57041 6.77793 3.49155 7.03786 3.5C7.3549 3.50791 7.66161 3.6144 7.91534 3.80467C8.16906 3.99494 8.35721 4.25953 8.45361 4.56167C8.56211 4.90175 8.66128 5.13158 8.75111 5.25117C9.02254 5.6133 9.37464 5.90719 9.77947 6.1095C10.1843 6.31181 10.6307 6.41698 11.0833 6.41667V7.58333C10.4809 7.58399 9.8858 7.45108 9.34092 7.19417C8.79604 6.93726 8.31489 6.56275 7.93211 6.09758L7.52553 8.40467L8.72778 9.41383L10.0245 12.9768L8.92786 13.3758L7.73786 10.1068L5.76036 8.44725C5.59808 8.31621 5.47389 8.14405 5.40074 7.94871C5.32759 7.75337 5.30815 7.54199 5.34444 7.33658L5.64136 5.65367L5.24644 5.94067L4.00569 7.64867L3.06186 6.96267L4.43328 5.075L4.44319 5.082ZM7.87494 3.20833C7.56552 3.20833 7.26878 3.08542 7.04998 2.86662C6.83119 2.64783 6.70828 2.35109 6.70828 2.04167C6.70828 1.73225 6.83119 1.4355 7.04998 1.21671C7.26878 0.997916 7.56552 0.875 7.87494 0.875C8.18436 0.875 8.48111 0.997916 8.6999 1.21671C8.91869 1.4355 9.04161 1.73225 9.04161 2.04167C9.04161 2.35109 8.91869 2.64783 8.6999 2.86662C8.48111 3.08542 8.18436 3.20833 7.87494 3.20833ZM6.14128 10.8973L4.26644 13.1314L3.37278 12.3818L5.10878 10.3133L5.54394 9.04167L6.58869 9.91667L6.14128 10.8973Z" fill="#ADADAD"/>
</svg>
