<svg width="24" height="24" viewBox="0 0 24 24" fill="none" xmlns="http://www.w3.org/2000/svg">
<path d="M20.8449 4.18334L20.8582 4.17822L20.8711 4.17237C21.1347 4.05312 21.3003 4.11657 21.3778 4.19146C21.4619 4.27281 21.591 4.512 21.4619 5.02983L21.4597 5.0384L21.4579 5.04704L18.4389 19.275L18.4385 19.2768C18.3469 19.7161 18.199 19.8379 18.1276 19.87C18.0551 19.9026 17.8772 19.9265 17.529 19.7409L12.9581 16.3646L12.6167 16.1125L12.3124 16.4084L10.1028 18.557C10.1026 18.5572 10.1024 18.5574 10.1023 18.5575C10.096 18.5636 10.0898 18.5696 10.0838 18.5754L10.3267 14.9448L17.6777 9.38151L17.6933 9.36972L17.7079 9.35674C17.8298 9.2486 18.0029 9.05674 18.013 8.78897C18.0187 8.63738 17.969 8.49105 17.8714 8.37483C17.7805 8.26652 17.6683 8.20753 17.5759 8.17579C17.3968 8.1143 17.2066 8.12399 17.0487 8.15671C16.8883 8.18994 16.7211 8.25494 16.5587 8.35075L7.22441 12.8994L2.8619 11.5385L2.8619 11.5385L2.85967 11.5378C2.67853 11.4822 2.57505 11.4218 2.52356 11.3797C2.53652 11.3641 2.55552 11.3439 2.58311 11.3195C2.68022 11.2336 2.85016 11.127 3.11825 11.019L20.8449 4.18334Z" stroke="#DDE2FF"/>
</svg>
