<svg width="24" height="24" viewBox="0 0 24 24" fill="none" xmlns="http://www.w3.org/2000/svg">
<path d="M18.2266 5.81016L18.2256 5.80923C17.4173 4.99557 16.4556 4.35041 15.3961 3.91111C14.3366 3.47181 13.2006 3.24711 12.0536 3.25003L12.053 3.25003C7.24312 3.25003 3.327 7.16505 3.325 11.977L18.2266 5.81016ZM18.2266 5.81016C19.0389 6.61922 19.6828 7.58125 20.1211 8.64066C20.5593 9.70006 20.7833 10.8358 20.78 11.9823V11.9829C20.7781 16.795 16.8619 20.71 12.053 20.71H12.0491C12.0491 20.71 12.049 20.71 12.049 20.71C10.592 20.7094 9.15825 20.3441 7.87853 19.6475L7.79144 19.6L7.69554 19.6252L3.35547 20.7643M18.2266 5.81016L3.35547 20.7643M3.35547 20.7643L4.51413 16.531L4.54165 16.4305L4.4896 16.3402C3.72657 15.0163 3.32502 13.5154 3.325 11.9771L3.35547 20.7643ZM7.9421 18.5104L5.21945 19.2248L4.80062 19.3347L4.91486 18.9171L5.6389 16.27L5.5203 16.081C5.52028 16.081 5.52027 16.081 5.52025 16.0809C4.74802 14.8515 4.33921 13.4287 4.341 11.9769C4.341 11.9768 4.341 11.9768 4.341 11.9767L4.591 11.977L7.9421 18.5104ZM7.9421 18.5104L8.12407 18.6188L8.12451 18.6191C9.31274 19.3235 10.6687 19.6952 12.05 19.695H12.053C16.3032 19.695 19.7619 16.235 19.764 11.9831L7.9421 18.5104ZM14.5275 13.3609L14.5271 13.3608C14.4769 13.3424 14.4414 13.3307 14.4121 13.3239C14.3838 13.3173 14.3717 13.3179 14.3689 13.3183C14.3679 13.3184 14.3682 13.3184 14.3689 13.3181C14.3694 13.318 14.3692 13.318 14.3685 13.3184C14.3679 13.3187 14.367 13.3193 14.3658 13.3201C14.3595 13.3245 14.3423 13.3389 14.3167 13.3771C14.156 13.6171 13.7144 14.1349 13.5863 14.2815C13.4967 14.384 13.3793 14.4724 13.2196 14.4915C13.0705 14.5094 12.9285 14.4608 12.8002 14.3966C12.7693 14.3812 12.7249 14.362 12.6685 14.3377C12.3598 14.2045 11.6936 13.917 10.9416 13.2466L10.9416 13.2466C10.245 12.6252 9.77917 11.8641 9.64395 11.6318C9.54877 11.4683 9.52548 11.3035 9.58377 11.1473C9.63101 11.0206 9.72486 10.9279 9.77642 10.877C9.7787 10.8747 9.7809 10.8726 9.78301 10.8705L9.7831 10.8704C9.8416 10.8125 9.90383 10.7363 9.97454 10.6497C10.015 10.6002 10.0581 10.5474 10.105 10.4926C10.1784 10.4067 10.2058 10.3509 10.2607 10.2393C10.2711 10.2182 10.2825 10.195 10.2954 10.1692C10.3109 10.1383 10.3125 10.1163 10.3104 10.0968C10.3079 10.0733 10.2985 10.0432 10.2772 10.0014L10.276 9.99904L10.276 9.99904C10.2348 9.91592 10.0122 9.37441 9.81635 8.898C9.72307 8.6711 9.63586 8.45896 9.57722 8.31815L9.57718 8.31807C9.49769 8.12703 9.43904 8.09851 9.43322 8.09576C9.42851 8.09354 9.42112 8.09093 9.40162 8.08985C9.39067 8.08924 9.37858 8.0892 9.36003 8.08936C9.35845 8.08937 9.35678 8.08939 9.35501 8.0894L14.5275 13.3609ZM14.5275 13.3609C14.6154 13.3929 14.9273 13.5396 15.2637 13.7019C15.5922 13.8605 15.9227 14.0237 16.0338 14.0794C16.0864 14.1059 16.1302 14.127 16.1682 14.1454C16.2212 14.171 16.2632 14.1913 16.303 14.2133C16.3283 14.2272 16.3441 14.2375 16.3534 14.2441C16.3543 14.251 16.3553 14.2599 16.3562 14.2712C16.3599 14.318 16.3599 14.3852 16.3526 14.4698C16.338 14.6383 16.2957 14.8605 16.2095 15.102C16.145 15.2829 15.9344 15.4954 15.6446 15.681C15.3608 15.8628 15.0628 15.9797 14.8943 16.0047C14.5274 16.0588 14.0808 16.0798 13.5942 15.9249C13.2724 15.8219 12.8632 15.6868 12.3381 15.4605C10.3082 14.5836 8.92762 12.6105 8.64996 12.2136C8.62998 12.1851 8.61571 12.1647 8.60732 12.1535L8.60729 12.1534L8.60436 12.1495L8.40407 12.2991L8.60436 12.1495C8.546 12.0714 8.32797 11.7795 8.12484 11.3771C7.91997 10.9712 7.741 10.4736 7.741 9.98203C7.741 9.04834 8.18981 8.56911 8.41597 8.32762C8.43197 8.31053 8.44686 8.29463 8.46039 8.27985L8.46043 8.27988M14.5275 13.3609L8.46043 8.27988M8.46043 8.27988L8.46366 8.2762M8.46043 8.27988L8.46366 8.2762M8.46366 8.2762C8.51609 8.21664 8.58025 8.16855 8.65213 8.13495C8.72325 8.10171 8.8004 8.08336 8.87886 8.08102C9.0171 8.08056 9.15533 8.08316 9.29346 8.08881L8.46366 8.2762Z" fill="#DDE2FF" stroke="#DDE2FF" stroke-width="0.5"/>
</svg>
