<svg width="21" height="22" viewBox="0 0 21 22" fill="none" xmlns="http://www.w3.org/2000/svg">
<path d="M10.5 2.43677C14.5836 7.76552 16.625 11.5569 16.625 13.8118C16.625 14.6161 16.4666 15.4126 16.1588 16.1557C15.851 16.8988 15.3998 17.574 14.831 18.1428C14.2623 18.7116 13.5871 19.1627 12.8439 19.4705C12.1008 19.7783 11.3043 19.9368 10.5 19.9368C9.69565 19.9368 8.89918 19.7783 8.15606 19.4705C7.41294 19.1627 6.73773 18.7116 6.16897 18.1428C5.60021 17.574 5.14905 16.8988 4.84124 16.1557C4.53343 15.4126 4.375 14.6161 4.375 13.8118C4.375 11.5569 6.41638 7.76552 10.5 2.43677Z" fill="#283655"/>
</svg>
