<svg width="21" height="22" viewBox="0 0 21 22" fill="none" xmlns="http://www.w3.org/2000/svg">
<path d="M17.2266 17.7744H3.77344C3.6832 17.7744 3.60938 17.8482 3.60938 17.9385V19.1689C3.60938 19.2592 3.6832 19.333 3.77344 19.333H17.2266C17.3168 19.333 17.3906 19.2592 17.3906 19.1689V17.9385C17.3906 17.8482 17.3168 17.7744 17.2266 17.7744ZM17.2266 2.92676H3.77344C3.6832 2.92676 3.60938 3.00059 3.60938 3.09082V4.32129C3.60938 4.41152 3.6832 4.48535 3.77344 4.48535H17.2266C17.3168 4.48535 17.3906 4.41152 17.3906 4.32129V3.09082C17.3906 3.00059 17.3168 2.92676 17.2266 2.92676ZM12.5262 8.38184C12.6492 8.38184 12.7189 8.23828 12.6431 8.14189L10.5759 5.5251C10.5622 5.50739 10.5446 5.49305 10.5246 5.48319C10.5045 5.47333 10.4824 5.4682 10.46 5.4682C10.4376 5.4682 10.4156 5.47333 10.3955 5.48319C10.3754 5.49305 10.3578 5.50739 10.3441 5.5251L8.27695 8.14189C8.25973 8.16379 8.24902 8.19009 8.24606 8.21779C8.2431 8.24549 8.248 8.27346 8.2602 8.2985C8.2724 8.32355 8.2914 8.34464 8.31504 8.35938C8.33868 8.37412 8.36599 8.3819 8.39385 8.38184H9.76172V13.8779H8.47383C8.35078 13.8779 8.28105 14.0215 8.35693 14.1179L10.4241 16.7326C10.4836 16.8085 10.5984 16.8085 10.6559 16.7326L12.723 14.1179C12.7989 14.0215 12.7312 13.8779 12.6062 13.8779H11.2383V8.38184H12.5262Z" fill="#283655"/>
</svg>
