<svg width="21" height="22" viewBox="0 0 21 22" fill="none" xmlns="http://www.w3.org/2000/svg">
<g clip-path="url(#clip0)">
<path d="M17.2195 6.5098H15.1195V1.85578C15.1195 1.41058 14.7436 1.0498 14.2795 1.0498C13.8154 1.0498 13.4395 1.41058 13.4395 1.85578V6.5098H6.71953V1.85578C6.71953 1.41058 6.34363 1.0498 5.87911 1.0498C5.41501 1.0498 5.03953 1.41058 5.03953 1.85578V6.5098H2.93953C2.70727 6.5098 2.51953 6.87478 2.51953 7.09738V9.1138C2.51953 11.5326 6.71953 14.3411 6.71953 18.2261V19.5298H8.39953V21.2098H11.7595V19.5298H13.4395V18.2261C13.4395 14.3411 17.6395 11.5322 17.6395 9.1138V7.09738C17.6395 6.87478 17.4518 6.5098 17.2195 6.5098ZM9.62047 13.3928C9.64777 13.3046 9.59233 13.2298 9.49615 13.2298H7.86445C7.76785 13.2298 7.74055 13.1752 7.80187 13.1042C7.80187 13.1042 11.164 8.83744 11.2295 8.75512C11.2791 8.677 11.3337 8.7043 11.3164 8.79418C11.2904 8.908 10.5726 11.819 10.5726 11.819C10.5378 11.9047 10.5882 11.9698 10.6835 11.9698H12.316C12.4122 11.9698 12.4429 12.0345 12.3841 12.1076C12.3841 12.1076 9.01693 16.4764 8.95645 16.5495C8.89555 16.6226 8.83927 16.6003 8.86993 16.476L9.62047 13.3928Z" fill="#283655"/>
</g>
<defs>
<clipPath id="clip0">
<rect width="21" height="21" fill="white" transform="translate(0 0.629883)"/>
</clipPath>
</defs>
</svg>
