<svg width="21" height="22" viewBox="0 0 21 22" fill="none" xmlns="http://www.w3.org/2000/svg">
<path d="M10.5777 3.17609C8.81894 1.41734 6.18518 1.05859 4.06768 2.09109L7.24393 5.26734C7.58518 5.60859 7.58518 6.15984 7.24393 6.50109L5.85268 7.89234C5.51144 8.24234 4.96019 8.24234 4.61894 7.89234L1.44268 4.71609C0.418935 6.84234 0.777685 9.45859 2.53643 11.2173C3.31087 11.9893 4.29122 12.522 5.36032 12.7516C6.42942 12.9813 7.54204 12.8982 8.56519 12.5123L15.5302 19.4773C15.7427 19.6916 15.9956 19.8616 16.2742 19.9777C16.5527 20.0937 16.8515 20.1534 17.1533 20.1534C17.4551 20.1534 17.7539 20.0937 18.0325 19.9777C18.311 19.8616 18.5639 19.6916 18.7764 19.4773C18.9907 19.2648 19.1607 19.012 19.2768 18.7334C19.3928 18.4548 19.4525 18.156 19.4525 17.8542C19.4525 17.5524 19.3928 17.2536 19.2768 16.9751C19.1607 16.6965 18.9907 16.4436 18.7764 16.2311L11.8464 9.29234C12.6514 7.24484 12.2314 4.82984 10.5777 3.17609Z" fill="#283655"/>
</svg>
