<svg width="21" height="22" viewBox="0 0 21 22" fill="none" xmlns="http://www.w3.org/2000/svg">
<path d="M18.375 5.87988H14.875V3.25488C14.875 3.02282 14.7828 2.80026 14.6187 2.63616C14.4546 2.47207 14.2321 2.37988 14 2.37988H7C6.76794 2.37988 6.54538 2.47207 6.38128 2.63616C6.21719 2.80026 6.125 3.02282 6.125 3.25488V9.37988H2.625C2.39294 9.37988 2.17038 9.47207 2.00628 9.63617C1.84219 9.80026 1.75 10.0228 1.75 10.2549V17.2549C1.75 17.4869 1.84219 17.7095 2.00628 17.8736C2.17038 18.0377 2.39294 18.1299 2.625 18.1299H18.375C18.6071 18.1299 18.8296 18.0377 18.9937 17.8736C19.1578 17.7095 19.25 17.4869 19.25 17.2549V6.75488C19.25 6.52282 19.1578 6.30026 18.9937 6.13616C18.8296 5.97207 18.6071 5.87988 18.375 5.87988ZM5.25 16.3799H3.5V14.6299H5.25V16.3799ZM5.25 12.8799H3.5V11.1299H5.25V12.8799ZM9.625 16.3799H7.875V14.6299H9.625V16.3799ZM9.625 12.8799H7.875V11.1299H9.625V12.8799ZM9.625 9.37988H7.875V7.62988H9.625V9.37988ZM9.625 5.87988H7.875V4.12988H9.625V5.87988ZM13.125 16.3799H11.375V14.6299H13.125V16.3799ZM13.125 12.8799H11.375V11.1299H13.125V12.8799ZM13.125 9.37988H11.375V7.62988H13.125V9.37988ZM13.125 5.87988H11.375V4.12988H13.125V5.87988ZM17.5 16.3799H15.75V14.6299H17.5V16.3799ZM17.5 12.8799H15.75V11.1299H17.5V12.8799ZM17.5 9.37988H15.75V7.62988H17.5V9.37988Z" fill="#283655"/>
</svg>
