<svg width="15" height="22" viewBox="0 0 15 22" fill="none" xmlns="http://www.w3.org/2000/svg">
<g clip-path="url(#clip0)">
<path d="M4.5 11.1299H13.5C13.9141 11.1299 14.2676 11.2744 14.5605 11.5635C14.8535 11.8525 15 12.208 15 12.6299C15 13.0518 14.8516 13.4072 14.5547 13.6963C14.2578 13.9854 13.9062 14.1299 13.5 14.1299H12.9375L13.1719 21.2549C13.1797 21.3564 13.1465 21.4443 13.0723 21.5186C12.998 21.5928 12.9102 21.6299 12.8086 21.6299H12C11.9062 21.6299 11.8242 21.5928 11.7539 21.5186C11.6836 21.4443 11.6445 21.3564 11.6367 21.2549L11.4258 14.1299H5.25L4.05469 21.2666C4.01562 21.5088 3.89453 21.6299 3.69141 21.6299H2.82422C2.72266 21.6299 2.63477 21.5928 2.56055 21.5186C2.48633 21.4443 2.45312 21.3604 2.46094 21.2666L3.57422 14.1299C3.54297 14.1143 3.37109 14.0928 3.05859 14.0654C2.74609 14.0381 2.48633 13.9346 2.2793 13.7549C2.07227 13.5752 1.90625 13.2627 1.78125 12.8174C1.65625 12.3564 1.55273 11.7705 1.4707 11.0596C1.38867 10.3486 1.31055 9.4834 1.23633 8.46387C1.16211 7.44434 1.10938 6.77441 1.07812 6.4541C1.03906 6.0166 0.849609 5.32715 0.509766 4.38574C0.169922 3.44434 0 2.69238 0 2.12988C0 1.77051 0.123047 1.43066 0.369141 1.11035C0.615234 0.790039 0.992188 0.629883 1.5 0.629883C1.96094 0.629883 2.30469 0.776367 2.53125 1.06934C2.75781 1.3623 2.96484 1.81738 3.15234 2.43457C3.86328 4.7627 4.3125 7.66113 4.5 11.1299Z" fill="#283655"/>
</g>
<defs>
<clipPath id="clip0">
<rect width="15" height="21" fill="white" transform="translate(0 0.629883)"/>
</clipPath>
</defs>
</svg>
