<svg width="19" height="21" viewBox="0 0 19 21" fill="none" xmlns="http://www.w3.org/2000/svg">
<path d="M13.593 7.65554C13.593 6.94531 13.3729 6.37003 12.9328 5.92969C12.4927 5.48935 11.9138 5.26918 11.1961 5.26918H7.94609V10.0419H11.1961C11.9138 10.0419 12.4927 9.82173 12.9328 9.38139C13.3729 8.94105 13.593 8.36577 13.593 7.65554ZM16 7.65554C16 9.02628 15.5717 10.1449 14.7152 11.0114C13.8587 11.8778 12.7534 12.3111 11.3992 12.3111H7.94609V13.5682H13.075C13.1698 13.5682 13.2477 13.6001 13.3086 13.6641C13.3695 13.728 13.4 13.8097 13.4 13.9091V15.2727C13.4 15.3722 13.3695 15.4538 13.3086 15.5178C13.2477 15.5817 13.1698 15.6136 13.075 15.6136H7.94609V17.6591C7.94609 17.7585 7.91393 17.8402 7.84961 17.9041C7.78529 17.968 7.70911 18 7.62109 18H5.925C5.83021 18 5.75234 17.968 5.69141 17.9041C5.63047 17.8402 5.6 17.7585 5.6 17.6591V15.6136H3.325C3.23021 15.6136 3.15234 15.5817 3.09141 15.5178C3.03047 15.4538 3 15.3722 3 15.2727V13.9091C3 13.8097 3.03047 13.728 3.09141 13.6641C3.15234 13.6001 3.23021 13.5682 3.325 13.5682H5.6V12.3111H3.325C3.23021 12.3111 3.15234 12.2791 3.09141 12.2152C3.03047 12.1513 3 12.0696 3 11.9702V10.3828C3 10.2905 3.03047 10.2106 3.09141 10.1431C3.15234 10.0756 3.23021 10.0419 3.325 10.0419H5.6V3.34091C5.6 3.24148 5.63047 3.1598 5.69141 3.09588C5.75234 3.03196 5.83021 3 5.925 3H11.3992C12.7534 3 13.8587 3.43324 14.7152 4.29972C15.5717 5.16619 16 6.2848 16 7.65554Z" fill="#283655"/>
</svg>
